<svg xmlns="http://www.w3.org/2000/svg" version="1.0" viewBox="0 0 375 375">
  <defs>
    <clipPath id="a">
      <path d="M28.738 28.738h317.25v317.25H28.738Zm0 0"/>
    </clipPath>
    <clipPath id="b">
      <path d="M114.16 28.738h146.68c1.398 0 2.793.035 4.191.106a83.17 83.17 0 0 1 4.18.308c1.39.137 2.777.309 4.16.512a87 87 0 0 1 8.223 1.637 84.706 84.706 0 0 1 8.023 2.434 83.18 83.18 0 0 1 3.91 1.507 83.926 83.926 0 0 1 3.832 1.7 83.937 83.937 0 0 1 3.746 1.886 85.796 85.796 0 0 1 7.191 4.309 87.128 87.128 0 0 1 6.731 4.992 84.874 84.874 0 0 1 9.106 8.668 84.336 84.336 0 0 1 5.316 6.48 87.128 87.128 0 0 1 2.414 3.426 85.796 85.796 0 0 1 7.895 14.77 81.552 81.552 0 0 1 1.508 3.91 84.706 84.706 0 0 1 3.351 12.113 86.84 86.84 0 0 1 .719 4.129 87.76 87.76 0 0 1 .512 4.164 83.17 83.17 0 0 1 .308 4.18c.07 1.398.102 2.793.102 4.191v146.68c0 1.398-.031 2.793-.102 4.191a83.17 83.17 0 0 1-.308 4.18 87.599 87.599 0 0 1-.512 4.16 87 87 0 0 1-1.637 8.223 84.706 84.706 0 0 1-2.434 8.023 83.18 83.18 0 0 1-1.507 3.91 83.926 83.926 0 0 1-1.7 3.832 83.937 83.937 0 0 1-1.886 3.746 85.796 85.796 0 0 1-4.309 7.191 87.128 87.128 0 0 1-4.992 6.731 84.874 84.874 0 0 1-2.738 3.176 84.868 84.868 0 0 1-2.895 3.035c-.988.992-2 1.953-3.035 2.895a84.874 84.874 0 0 1-6.48 5.316 87.128 87.128 0 0 1-3.426 2.414 85.796 85.796 0 0 1-14.77 7.895 83.18 83.18 0 0 1-3.91 1.508 84.706 84.706 0 0 1-12.113 3.351 87 87 0 0 1-4.133.719c-1.383.203-2.77.375-4.16.512a83.17 83.17 0 0 1-4.18.308c-1.398.07-2.793.102-4.191.102H114.16c-1.398 0-2.793-.031-4.191-.102a83.17 83.17 0 0 1-4.18-.308 87.76 87.76 0 0 1-4.164-.512 86.84 86.84 0 0 1-8.219-1.637 84.706 84.706 0 0 1-8.023-2.434 86.02 86.02 0 0 1-7.746-3.207 83.797 83.797 0 0 1-3.742-1.886 85.796 85.796 0 0 1-7.191-4.309 87.128 87.128 0 0 1-6.735-4.992 84.983 84.983 0 0 1-6.21-5.633 84.874 84.874 0 0 1-8.207-9.516 87.128 87.128 0 0 1-2.415-3.425 85.796 85.796 0 0 1-7.895-14.77 83.18 83.18 0 0 1-1.508-3.91 84.706 84.706 0 0 1-3.351-12.113 87 87 0 0 1-.719-4.133 87.599 87.599 0 0 1-.512-4.16 83.17 83.17 0 0 1-.308-4.18 83.378 83.378 0 0 1-.106-4.191V114.16c0-1.398.035-2.793.106-4.191a83.17 83.17 0 0 1 .308-4.18 87.76 87.76 0 0 1 .512-4.164 86.84 86.84 0 0 1 1.637-8.219 84.706 84.706 0 0 1 2.434-8.023 86.02 86.02 0 0 1 3.207-7.746 83.797 83.797 0 0 1 1.886-3.742 85.796 85.796 0 0 1 4.309-7.191 87.128 87.128 0 0 1 4.992-6.735 88.004 88.004 0 0 1 5.629-6.211 88.004 88.004 0 0 1 6.21-5.629 87.128 87.128 0 0 1 6.734-4.992 85.796 85.796 0 0 1 14.77-7.895 81.552 81.552 0 0 1 3.91-1.508 84.706 84.706 0 0 1 12.114-3.351 86.84 86.84 0 0 1 4.129-.719 87.76 87.76 0 0 1 4.164-.512 83.17 83.17 0 0 1 4.18-.308 83.378 83.378 0 0 1 4.191-.106Zm0 0"/>
    </clipPath>
  </defs>
  <g clip-path="url(#a)">
    <g clip-path="url(#b)">
      <path fill="#5b5ee6" d="M28.738 345.988h317.25V28.738H28.738Zm0 0"/>
    </g>
  </g>
  <path fill="#fff" fill-rule="evenodd" d="M141.996 81.367c-20.469 4.516-39.062 18.461-44.094 33.067-3.55 10.308-3.414 25.558.332 36.671.68 2.028 1.239 4.012 1.239 4.407 0 .398-1.04 1.957-2.309 3.465-5.375 6.375-8.648 13.359-11.203 23.925-.836 3.453-1.043 6.828-1.02 16.532.028 10.636.2 12.789 1.332 16.879 1.739 6.28 4.778 12.386 8.348 16.761 3.281 4.02 10.242 9.61 15.067 12.098 3.042 1.57 3.171 1.734 3.324 4.266.808 13.605 2.508 17.78 10.547 25.855 3.265 3.281 7.164 6.473 9.984 8.18 2.547 1.535 4.746 2.793 4.89 2.793.141 0 1.7.66 3.462 1.464 4.648 2.13 8.261 2.81 14.972 2.825 6.88.015 9.649-.602 15.625-3.48 5.852-2.817 10.88-7.563 13.36-12.598l1.941-3.946V103.977l-1.418-3.868c-.781-2.125-2.191-4.992-3.133-6.367-3.457-5.047-13.3-11.062-20.605-12.597-4.219-.887-16.207-.758-20.64.222m78.21-.015c-13.172 3.757-21.187 11.492-23.203 22.39-.399 2.168-.55 31.18-.45 85.028l.16 81.734 2.036 4.164c3.55 7.273 10.45 12.52 19.594 14.902 3.937 1.024 12.457 1.121 16.851.192 10.297-2.176 22.696-10.04 29.278-18.555 4.68-6.059 5.859-9.18 6.52-17.246l.581-7.113 5.094-3.29c11.36-7.328 17.152-15.066 20.34-27.175 1.262-4.785 1.41-6.613 1.398-17.246-.008-7.532-.293-13.094-.773-15.168-1.656-7.114-2.07-8.723-2.899-11.293-1.16-3.602-3.859-8.57-6.68-12.293-3.62-4.778-3.726-5.094-2.683-8.031 1.762-4.954 2.637-11.48 2.637-19.641 0-10.059-1.008-15.207-4.285-21.895-2.032-4.14-3.508-6.09-8.168-10.765-3.125-3.14-7.293-6.785-9.254-8.098-7.453-4.988-17.14-9.152-25.156-10.816-4.223-.875-17.59-.739-20.938.215m-73.45 14.125c-8.64 1.32-17.155 4.585-23.097 8.859-4.75 3.41-9.902 8.988-11.719 12.684-2.398 4.863-3.148 9.894-2.718 18.18.398 7.66.78 9.402 3.683 16.726 1.117 2.82 2.031 5.652 2.031 6.289 0 .64-1.507 2.879-3.347 4.984-8.004 9.133-11.61 17.254-12.82 28.875-2 19.18 4.19 35.492 15.34 40.422 2.093.926 5.312 1.66 8.917 2.035 6.657.688 7.563 1.102 13.024 5.953 6.851 6.086 8.226 6.793 13.281 6.809 4.055.016 4.465-.102 5.8-1.652 1.403-1.63 1.438-1.914 1.427-12.192-.004-5.789-.204-10.793-.446-11.117-.254-.348-3.8-.598-8.465-.598-9.3 0-12.652-.84-17.738-4.445-6.316-4.476-9.867-11.312-9.89-19.047-.032-9.898 5.683-18.48 15.437-23.18 6.148-2.96 10-3.753 16.988-3.496 5.14.192 6.106.422 10.184 2.438 2.684 1.328 5.402 3.223 6.73 4.695 2.168 2.399 2.22 2.563 1.934 6.125-.16 2.012-.75 4.54-1.305 5.617l-1.011 1.957-3.407-3.246c-5.402-5.156-10.84-7.293-17.48-6.867-4.465.281-9.309 2.438-12.54 5.578-3.398 3.297-4.206 5.301-4.187 10.38.016 3.8.254 4.835 1.614 6.984 2.867 4.53 8.304 7.062 14.066 6.539 4.398-.399 6.797-1.692 8.68-4.672 1.324-2.098 1.73-2.364 3.082-2.024 3.574.895 7.629 4.817 8.32 8.043.246 1.145.445 9.172.445 17.84 0 17.692.024 17.59-4.523 22.004-3.84 3.727-7.117 5.004-12.73 4.969-7.5-.047-13.715-2.547-19.391-7.801-2.031-1.879-3.746-3.027-4.149-2.781-1.039.644-.308 7.082 1.278 11.265 3.21 8.477 18.449 18.063 28.812 18.13 7.926.046 16.106-4.4 18.293-9.946 1.574-3.988 1.754-12.742 1.309-63.645-.344-39.21-.606-50.332-1.2-51.148-1.406-1.918-5.335-1.176-12.085 2.281l-6.094 3.125-6.356.02c-9.39.027-14.097-1.852-17.691-7.07-3.852-5.594-4.254-15.493-.836-20.653 1.898-2.867 4.191-4.644 12.172-9.445 8.77-5.274 9.945-5.586 12.156-3.235 1.203 1.282 1.285 1.68.7 3.364-.368 1.047-.665 3.062-.665 4.472 0 3.047-.976 3.797-4.945 3.797-2.465 0-2.832.219-5.39 3.219-1.512 1.77-2.75 3.5-2.75 3.844 0 .347-.817 1.562-1.817 2.699-1.723 1.96-1.773 2.156-.95 3.738 2.25 4.324 6.762 6.028 13.083 4.93 4.984-.86 6.597-1.547 11.082-4.707 3.508-2.473 4.16-2.715 7.262-2.7l3.402.024.406-3.25c.223-1.785.274-8.793.11-15.57-.34-14.145-.786-15.754-5.583-20.176-5.488-5.059-13.421-6.809-23.722-5.23m73.875.75c-6.957 2.41-10.719 6.191-11.762 11.832-.887 4.796-.496 30.421.48 31.394.41.406 2.477.922 4.598 1.14 3.14.325 4.563.86 7.692 2.9 4.449 2.898 8.675 4.179 13.8 4.19 5.973.012 7.903-2.355 6.774-8.304-.918-4.856-2.227-7.016-5.281-8.75-4.805-2.719-8.067-4.844-9.504-6.184-1.18-1.097-1.34-1.675-1.028-3.644.762-4.75 2.856-6.156 6.672-4.48 4.363 1.917 13.625 7.96 16.297 10.632 4.09 4.086 4.871 6.192 4.617 12.41-.238 5.785-1.136 8.078-4.828 12.27-3.625 4.117-7.648 5.742-14.383 5.816-5.648.059-5.808.012-13.976-4.054-3.535-1.762-4.23-1.903-8.196-1.665l-4.328.258.168 56.582.164 56.582 1.578 2.684c2.985 5.078 10.485 8.914 17.422 8.914 9.024 0 21.801-6.879 27.11-14.594 2.484-3.613 5.113-13.953 3.543-13.953-.387 0-2.004 1.168-3.594 2.594-1.586 1.426-4.7 3.496-6.918 4.598-3.617 1.8-4.648 2.027-9.988 2.218-4.973.18-6.512.008-9.313-1.047-4.808-1.812-7.683-4.12-9.726-7.816l-1.786-3.223v-15.464c0-8.504.215-16.481.477-17.727.629-2.953 4.531-6.957 6.79-6.957 1.12 0 2.472.848 4.437 2.785l2.824 2.781 5.094.266c6.175.324 9.457-.719 12.246-3.899 4.324-4.921 5.265-10.683 2.62-15.992-3.05-6.125-9.452-9.316-18.726-9.34-6.172-.015-9.312 1.368-14.582 6.434-1.902 1.828-3.648 3.117-3.875 2.86-.719-.81-1.765-5.942-1.765-8.669 0-3.203 1.964-5.53 6.683-7.93 4.653-2.363 8.438-3.179 14.727-3.179 8.636 0 14.55 1.941 20.047 6.586 6.129 5.176 9.304 10.953 10.078 18.32.847 8.121-3.305 16.375-10.782 21.43-4.644 3.14-7.148 3.777-16.37 4.148l-8.622.352-.172 10.11c-.093 5.562-.02 10.722.164 11.468.504 2.035 3.68 3.692 7.079 3.695 3.609.004 6.566-1.425 11.996-5.792 4.875-3.922 9.523-6.157 16.324-7.852 10.957-2.727 16.328-8.285 20.105-20.816 1.371-4.555 1.532-6.083 1.528-14.602-.004-7.996-.223-10.375-1.38-14.871-2.374-9.246-5.1-14.23-11.433-20.914-1.91-2.016-3.472-4.184-3.472-4.82 0-.633 1.12-4.47 2.496-8.524 2.464-7.285 2.492-7.476 2.527-16 .035-9.039-.23-10.469-3.098-16.652-6.832-14.727-34.46-26.012-50.27-20.535"/>
</svg>
