<svg xmlns="http://www.w3.org/2000/svg" version="1.0" viewBox="0 0 360 150">
  <defs>
    <clipPath id="a">
      <path d="M15 22.25h103.313v103.313H15Zm0 0"/>
    </clipPath>
    <clipPath id="b">
      <path d="M42.816 22.25h47.766a27.639 27.639 0 0 1 8.074 1.2 27.382 27.382 0 0 1 5.04 2.086 26.94 26.94 0 0 1 2.34 1.401 28.688 28.688 0 0 1 2.194 1.625 28.116 28.116 0 0 1 3.856 3.856 27.688 27.688 0 0 1 1.625 2.195 27 27 0 0 1 1.402 2.34c.43.805.82 1.625 1.168 2.469.348.84.656 1.7.922 2.57.262.871.484 1.754.66 2.649a27.421 27.421 0 0 1 .535 5.425v47.766a27.638 27.638 0 0 1-.535 5.426 27.902 27.902 0 0 1-.66 2.648c-.266.871-.574 1.73-.922 2.57a27.382 27.382 0 0 1-1.168 2.47c-.43.804-.894 1.581-1.402 2.34a27.688 27.688 0 0 1-1.625 2.194 28.089 28.089 0 0 1-3.856 3.856 28.689 28.689 0 0 1-2.195 1.625 26.41 26.41 0 0 1-2.34 1.402c-.804.43-1.625.82-2.468 1.168-.84.348-1.7.656-2.57.922-.872.262-1.755.484-2.65.66a27.248 27.248 0 0 1-5.425.535H42.816a27.638 27.638 0 0 1-5.425-.535 27.902 27.902 0 0 1-2.649-.66 27.894 27.894 0 0 1-9.57-5.117 27.308 27.308 0 0 1-2.024-1.836 27.25 27.25 0 0 1-3.46-4.215 28.281 28.281 0 0 1-1.403-2.34 27.382 27.382 0 0 1-2.086-5.039 26.783 26.783 0 0 1-.664-2.648A27.249 27.249 0 0 1 15 97.832V50.066a27.639 27.639 0 0 1 1.2-8.074 27.382 27.382 0 0 1 2.086-5.04 28.282 28.282 0 0 1 3.026-4.534 28.057 28.057 0 0 1 1.836-2.02 27.876 27.876 0 0 1 9.023-6.031c.84-.347 1.7-.656 2.571-.918a26.783 26.783 0 0 1 2.649-.664 27.422 27.422 0 0 1 5.425-.535Zm0 0"/>
    </clipPath>
  </defs>
  <g clip-path="url(#a)">
    <g clip-path="url(#b)">
      <path fill="#5b5ee6" d="M15 125.563h103.313V22.25H15Zm0 0"/>
    </g>
  </g>
  <path fill="#fff" fill-rule="evenodd" d="M51.883 39.387c-6.668 1.472-12.723 6.011-14.36 10.77-1.156 3.355-1.113 8.32.106 11.94.223.66.406 1.305.406 1.434 0 .133-.34.64-.754 1.13-1.75 2.077-2.816 4.35-3.648 7.792-.27 1.125-.34 2.223-.332 5.383.011 3.465.066 4.164.433 5.496.567 2.047 1.559 4.035 2.72 5.457 1.07 1.313 3.335 3.133 4.905 3.941.993.512 1.036.567 1.082 1.387.266 4.434.82 5.793 3.438 8.422 1.062 1.07 2.332 2.11 3.25 2.664.828.5 1.547.91 1.594.91.047 0 .55.215 1.125.477 1.515.691 2.691.914 4.875.918 2.242.008 3.144-.195 5.09-1.133 1.906-.918 3.542-2.46 4.351-4.102l.633-1.285V46.75l-.465-1.258c-.254-.695-.71-1.625-1.02-2.074-1.124-1.645-4.328-3.602-6.71-4.102-1.372-.289-5.278-.25-6.72.07m25.47-.003c-4.29 1.222-6.899 3.742-7.555 7.293-.133.703-.184 10.152-.149 27.687l.051 26.617.664 1.356c1.157 2.367 3.403 4.078 6.383 4.852 1.281.335 4.055.367 5.484.062 3.356-.707 7.391-3.27 9.536-6.043 1.523-1.973 1.91-2.988 2.125-5.613l.187-2.317 1.66-1.07c3.7-2.387 5.586-4.91 6.621-8.852.41-1.558.461-2.152.457-5.617-.004-2.453-.093-4.265-.254-4.937-.539-2.317-.671-2.844-.94-3.68-.38-1.172-1.259-2.789-2.177-4.004-1.18-1.555-1.215-1.656-.875-2.613.575-1.613.86-3.738.86-6.395 0-3.277-.328-4.953-1.395-7.132-.664-1.348-1.144-1.98-2.66-3.504-1.02-1.024-2.375-2.211-3.016-2.637-2.425-1.625-5.578-2.98-8.191-3.523-1.375-.286-5.727-.243-6.816.07M53.434 43.98c-2.817.434-5.586 1.497-7.524 2.887-1.547 1.11-3.222 2.926-3.816 4.13-.782 1.585-1.024 3.222-.883 5.921.129 2.492.254 3.062 1.2 5.445.362.922.66 1.844.66 2.051 0 .207-.493.938-1.09 1.621-2.606 2.977-3.782 5.617-4.176 9.406-.653 6.243 1.367 11.555 4.996 13.16.683.301 1.73.544 2.902.665 2.168.222 2.465.359 4.242 1.937 2.23 1.984 2.68 2.211 4.325 2.219 1.32.004 1.457-.035 1.89-.54.457-.53.469-.624.465-3.968-.004-1.887-.066-3.516-.145-3.621-.082-.113-1.238-.195-2.757-.195-3.028 0-4.121-.274-5.778-1.446-2.054-1.46-3.21-3.687-3.218-6.203-.012-3.222 1.851-6.02 5.023-7.55 2.004-.965 3.258-1.223 5.535-1.137 1.676.062 1.988.136 3.317.793.87.433 1.757 1.05 2.191 1.527.707.781.723.836.629 1.996-.05.656-.242 1.48-.426 1.828l-.328.637-1.11-1.055c-1.757-1.68-3.53-2.375-5.69-2.238-1.454.094-3.032.797-4.087 1.816-1.105 1.075-1.367 1.727-1.363 3.383.008 1.235.086 1.574.527 2.274.934 1.476 2.703 2.3 4.582 2.129 1.43-.13 2.211-.551 2.825-1.52.43-.684.562-.773 1.003-.66 1.165.289 2.485 1.566 2.711 2.617.079.375.145 2.988.145 5.813 0 5.757.008 5.726-1.473 7.164-1.254 1.214-2.32 1.629-4.148 1.617-2.442-.016-4.465-.828-6.313-2.54-.66-.613-1.218-.988-1.351-.906-.34.211-.102 2.305.414 3.668 1.047 2.762 6.008 5.883 9.383 5.903 2.582.02 5.246-1.43 5.957-3.238.515-1.297.574-4.149.425-20.723-.109-12.77-.195-16.39-.386-16.656-.461-.625-1.739-.387-3.938.742l-1.984 1.015-2.07.008c-3.059.008-4.59-.601-5.762-2.3-1.254-1.825-1.383-5.047-.27-6.727.617-.934 1.364-1.516 3.961-3.074 2.856-1.72 3.242-1.82 3.961-1.055.39.418.418.547.227 1.094-.117.34-.215.996-.215 1.457 0 .992-.32 1.238-1.613 1.238-.801 0-.922.07-1.754 1.047-.492.574-.895 1.14-.895 1.25 0 .113-.265.508-.594.879-.558.64-.574.703-.308 1.219.734 1.41 2.203 1.96 4.262 1.605 1.62-.281 2.148-.504 3.609-1.535 1.14-.805 1.355-.883 2.363-.875l1.11.004.132-1.059c.07-.578.086-2.863.036-5.07-.11-4.606-.258-5.129-1.82-6.566-1.786-1.649-4.368-2.22-7.723-1.708m24.054.247c-2.265.785-3.488 2.015-3.828 3.851-.289 1.563-.16 9.906.156 10.227.133.133.805.297 1.496.37 1.024.106 1.489.278 2.504.942 1.45.946 2.829 1.363 4.496 1.367 1.946.004 2.575-.77 2.208-2.703-.301-1.582-.727-2.289-1.723-2.851-1.563-.887-2.625-1.578-3.094-2.016-.383-.355-.437-.543-.336-1.184.25-1.546.93-2.007 2.176-1.46 1.418.625 4.434 2.593 5.305 3.46 1.332 1.333 1.586 2.02 1.504 4.043-.079 1.887-.372 2.63-1.575 3.997-1.18 1.34-2.488 1.87-4.68 1.894-1.843.02-1.894.004-4.554-1.32-1.148-.574-1.379-.621-2.668-.543l-1.41.086.11 36.851.51.871c.974 1.657 3.415 2.907 5.677 2.907 2.937 0 7.097-2.243 8.828-4.754.808-1.176 1.664-4.543 1.152-4.543-.125 0-.652.379-1.168.844-.515.464-1.531 1.136-2.254 1.496-1.175.586-1.515.66-3.254.722-1.617.059-2.117.004-3.03-.34-1.567-.59-2.505-1.343-3.169-2.546l-.582-1.051v-5.035c0-2.77.07-5.368.156-5.77.204-.965 1.477-2.266 2.211-2.266.368 0 .805.274 1.446.907l.918.906 1.66.086c2.011.105 3.078-.234 3.988-1.27 1.406-1.605 1.715-3.48.852-5.21-.993-1.993-3.079-3.032-6.098-3.04-2.008-.004-3.031.446-4.746 2.094-.621.598-1.192 1.016-1.266.934-.234-.266-.574-1.938-.574-2.825 0-1.043.64-1.8 2.176-2.582 1.515-.77 2.75-1.035 4.797-1.035 2.812 0 4.738.633 6.53 2.145 1.993 1.683 3.028 3.566 3.278 5.965.278 2.644-1.074 5.332-3.508 6.98-1.511 1.024-2.328 1.23-5.332 1.352l-2.808.113-.055 3.293c-.031 1.809-.004 3.488.055 3.734.164.66 1.195 1.203 2.305 1.203 1.175 0 2.136-.464 3.906-1.886 1.586-1.278 3.101-2.004 5.316-2.559 3.567-.887 5.317-2.7 6.547-6.777.445-1.485.5-1.98.496-4.754 0-2.606-.074-3.379-.45-4.844-.772-3.012-1.66-4.633-3.722-6.808-.62-.66-1.129-1.364-1.129-1.57 0-.208.364-1.458.813-2.778.8-2.371.808-2.434.82-5.211.012-2.941-.074-3.41-1.008-5.422-2.226-4.797-11.222-8.473-16.37-6.687"/>
  <path fill="#5b5ee6" d="M165.364 65.31c-.855-1.582-2.09-2.789-3.703-3.625-1.606-.843-3.496-1.265-5.672-1.265-3.762 0-6.777 1.234-9.047 3.703-2.262 2.469-3.39 5.765-3.39 9.89 0 4.399 1.187 7.829 3.562 10.297 2.383 2.469 5.66 3.703 9.828 3.703 2.852 0 5.266-.722 7.234-2.171 1.97-1.446 3.407-3.532 4.313-6.25h-14.734v-8.563h25.265v10.797c-.855 2.906-2.312 5.605-4.375 8.094-2.062 2.492-4.683 4.507-7.86 6.047-3.167 1.542-6.745 2.312-10.734 2.312-4.71 0-8.914-1.031-12.609-3.094-3.687-2.062-6.562-4.926-8.625-8.593-2.055-3.676-3.078-7.868-3.078-12.579 0-4.707 1.023-8.906 3.078-12.593 2.063-3.696 4.926-6.578 8.594-8.641 3.676-2.062 7.867-3.094 12.578-3.094 5.707 0 10.52 1.387 14.437 4.157 3.915 2.761 6.508 6.585 7.782 11.468Zm17.806 13.594c0-3.895.734-7.312 2.203-10.25 1.469-2.945 3.473-5.21 6.016-6.797 2.539-1.594 5.375-2.39 8.5-2.39 2.664 0 5.004.546 7.015 1.64 2.02 1.086 3.578 2.512 4.672 4.281v-5.375h11.61v37.922h-11.61V92.56c-1.136 1.774-2.715 3.203-4.734 4.297-2.012 1.082-4.356 1.625-7.031 1.625-3.075 0-5.883-.8-8.422-2.406-2.543-1.613-4.547-3.906-6.016-6.875-1.469-2.969-2.203-6.399-2.203-10.297Zm28.406.078c0-2.906-.808-5.195-2.422-6.875-1.605-1.676-3.562-2.515-5.875-2.515-2.312 0-4.277.828-5.89 2.484-1.606 1.656-2.407 3.933-2.407 6.828 0 2.906.801 5.211 2.407 6.906 1.613 1.7 3.578 2.547 5.89 2.547 2.313 0 4.27-.836 5.875-2.515 1.614-1.676 2.422-3.961 2.422-6.86Zm25.885-22.906c-2.042 0-3.71-.598-5-1.797-1.292-1.195-1.937-2.68-1.937-4.453 0-1.813.645-3.317 1.937-4.516 1.29-1.207 2.958-1.812 5-1.812 1.989 0 3.63.605 4.922 1.812 1.29 1.2 1.938 2.703 1.938 4.516 0 1.773-.649 3.258-1.938 4.453-1.293 1.2-2.933 1.797-4.922 1.797Zm5.766 3.937v37.922h-11.61V60.013Zm6.123 18.891c0-3.895.734-7.312 2.202-10.25 1.47-2.945 3.473-5.21 6.016-6.797 2.54-1.594 5.375-2.39 8.5-2.39 2.664 0 5.004.546 7.016 1.64 2.02 1.086 3.578 2.512 4.672 4.281v-5.375h11.609v37.922h-11.61V92.56c-1.136 1.774-2.714 3.203-4.734 4.297-2.012 1.082-4.355 1.625-7.031 1.625-3.074 0-5.883-.8-8.422-2.406-2.543-1.613-4.547-3.906-6.016-6.875-1.468-2.969-2.203-6.399-2.203-10.297Zm28.406.078c0-2.906-.81-5.195-2.422-6.875-1.606-1.676-3.563-2.515-5.875-2.515-2.313 0-4.278.828-5.891 2.484-1.605 1.656-2.406 3.933-2.406 6.828 0 2.906.8 5.211 2.406 6.906 1.613 1.7 3.578 2.547 5.89 2.547 2.313 0 4.27-.836 5.876-2.515 1.613-1.676 2.422-3.961 2.422-6.86Zm42.463 18.953-7.281-10.531-6.11 10.531H294.25l12.516-19.36-12.844-18.562h13.047l7.266 10.47 6.125-10.47h12.562l-12.703 19.094 13.047 18.828Zm0 0"/>
</svg>
